<svg width="17" height="17" viewBox="0 0 17 17" fill="none" xmlns="http://www.w3.org/2000/svg">
<path d="M7.56796 8.94434H11.008M5.50391 8.94434H5.51008M8.94399 11.6964H5.50391M11.008 11.6964H11.0018" stroke="#666D80" stroke-width="1.03202" stroke-linecap="round" stroke-linejoin="round"/>
<path d="M12.3841 1.37598V2.75201M4.12793 1.37598V2.75201" stroke="#666D80" stroke-width="1.03202" stroke-linecap="round" stroke-linejoin="round"/>
<path d="M1.72021 8.42344C1.72021 5.42557 1.72021 3.92662 2.58169 2.99529C3.44317 2.06396 4.8297 2.06396 7.60276 2.06396H8.90999C11.683 2.06396 13.0696 2.06396 13.9311 2.99529C14.7925 3.92662 14.7925 5.42557 14.7925 8.42344V8.7768C14.7925 11.7747 14.7925 13.2736 13.9311 14.205C13.0696 15.1363 11.683 15.1363 8.90999 15.1363H7.60276C4.8297 15.1363 3.44317 15.1363 2.58169 14.205C1.72021 13.2736 1.72021 11.7747 1.72021 8.7768V8.42344Z" stroke="#666D80" stroke-width="1.03202" stroke-linecap="round" stroke-linejoin="round"/>
<path d="M2.06396 5.50391H14.4483" stroke="#666D80" stroke-width="1.03202" stroke-linecap="round" stroke-linejoin="round"/>
</svg>
