<svg width="139" height="73" viewBox="0 0 139 73" fill="none" xmlns="http://www.w3.org/2000/svg">
<path opacity="0.1" d="M10 69.5L0 72H137.5V7L132.797 3.5H128.3L121.686 7L116 2L111 15L106.873 12L102.5 16.5L95 19.5L93.3818 29H87.8267L89.4138 38L75.1293 34L67.7224 53.5L61.9028 46L55.8186 49H45.7665L37.0371 60L31.2174 53.5L25 58L20 65H14.2876L10 69.5Z" fill="url(#paint0_linear_2214_3198)"/>
<path d="M0.5 72L10.5 69.5L14.7876 65H20.5L25.5 58L31.7174 53.5L37.5371 60L46.2665 49H56.3186L62.4028 46L68.2224 53.5L75.6293 34L89.9138 38L88.3267 29H93.8818L95.5 19.5L103 16.5L107.373 12L111.5 15L116.5 2L122.186 7L128.8 3.5H133.297L138 7" stroke="#16B364" stroke-width="1.3"/>
<defs>
<linearGradient id="paint0_linear_2214_3198" x1="68.75" y1="2" x2="68.75" y2="72" gradientUnits="userSpaceOnUse">
<stop stop-color="#16B364"/>
<stop offset="1" stop-color="white"/>
</linearGradient>
</defs>
</svg>
