<svg width="17" height="17" viewBox="0 0 17 17" fill="none" xmlns="http://www.w3.org/2000/svg">
<path d="M11.9358 6.59777C11.9342 4.56801 11.9035 3.51666 11.3125 2.79678C11.1985 2.65775 11.071 2.53028 10.932 2.41619C10.1725 1.79297 9.04422 1.79297 6.78751 1.79297C4.53082 1.79297 3.40248 1.79297 2.64304 2.41619C2.504 2.53027 2.37652 2.65775 2.26242 2.79678C1.63916 3.55618 1.63916 4.68444 1.63916 6.94096C1.63916 9.19751 1.63916 10.3257 2.26242 11.0852C2.37651 11.2241 2.504 11.3516 2.64304 11.4657C3.36296 12.0566 4.4144 12.0872 6.44428 12.0889" stroke="#202020" stroke-width="1.03202" stroke-linecap="round" stroke-linejoin="round"/>
<path d="M9.91615 6.62698L11.9566 6.59766M9.90652 15.5552L11.9469 15.5258M15.3813 10.0654L15.362 12.1017M6.4637 10.0747L6.44446 12.111M8.1679 6.62698C7.59492 6.7296 6.67525 6.83516 6.4637 8.0197M13.6771 15.5258C14.2515 15.432 15.1727 15.3406 15.4025 14.1594M13.6771 6.62698C14.25 6.7296 15.1697 6.83516 15.3813 8.0197M8.17664 15.5249C7.60366 15.4226 6.68391 15.3176 6.47171 14.1331" stroke="#202020" stroke-width="1.03202" stroke-linecap="round" stroke-linejoin="round"/>
</svg>
