<svg width="240" height="301" viewBox="0 0 240 301" fill="none" xmlns="http://www.w3.org/2000/svg">
<path d="M127.884 228.096H109.844V214.32C88.196 211.04 74.42 197.264 72.78 176.764H100.824C100.824 186.44 107.712 192.344 119.192 192.344C128.868 192.344 135.92 188.572 135.92 181.52C135.92 176.764 130.672 173.156 125.26 172.008L106.892 168.072C90.164 164.464 77.208 156.264 77.208 136.42C77.208 118.38 90.492 104.932 109.844 101.652V87.712H127.884V101.652C148.712 104.768 162.98 118.38 164.456 138.552H136.412C135.756 129.532 129.36 123.628 119.848 123.628C111.812 123.628 105.744 126.908 105.744 134.288C105.744 139.044 110.5 142.16 116.076 143.308L134.116 147.08C154.616 151.344 166.096 161.84 166.096 177.912C166.096 198.74 151.5 212.516 127.884 214.812V228.096Z" fill="url(#paint0_linear_2178_3198)" fill-opacity="0.04"/>
<path d="M33.956 236.036C29.692 236.036 27.888 238.988 28.38 248.5H5.584C2.632 233.248 8.044 221.112 18.212 215.536V199.464H6.568V181.424H18.212V172.24C18.212 149.936 34.284 135.996 57.572 135.996C78.564 135.996 96.276 147.476 97.588 170.928H67.248C66.264 163.548 62.492 161.252 56.752 161.252C50.684 161.252 46.584 164.696 46.584 171.584V181.424H71.02V199.464H46.584V216.192C54.292 220.784 61.18 224.556 67.74 224.556C73.48 224.556 75.776 220.948 74.464 212.092H97.26C101.36 234.068 89.552 249.812 71.512 249.812C55.112 249.812 41.172 236.036 33.956 236.036Z" fill="url(#paint1_linear_2178_3198)" fill-opacity="0.04"/>
<path d="M234.916 142.8V168.548C228.356 171.664 221.14 173.14 211.136 173.14C185.88 173.14 166.528 159.364 159.476 136.076H141.764V119.676H156.852C156.688 116.396 156.688 115.248 156.852 111.476H141.764V95.076H159.64C166.856 72.444 186.044 58.996 211.136 58.996C221.304 58.996 228.52 60.144 234.916 62.768V89.172C228.848 85.892 221.632 84.252 213.924 84.252C203.592 84.252 195.228 88.024 190.144 95.076H220.648V111.476H184.24C184.076 114.756 184.076 116.724 184.24 119.676H220.648V136.076H189.652C194.9 143.62 203.592 147.72 213.924 147.72C221.632 147.72 229.996 145.752 234.916 142.8Z" fill="url(#paint2_linear_2178_3198)" fill-opacity="0.04"/>
<defs>
<linearGradient id="paint0_linear_2178_3198" x1="104.223" y1="98" x2="137.617" y2="189.864" gradientUnits="userSpaceOnUse">
<stop/>
<stop offset="1" stop-opacity="0.25"/>
</linearGradient>
<linearGradient id="paint1_linear_2178_3198" x1="35.2234" y1="133" x2="68.6167" y2="224.864" gradientUnits="userSpaceOnUse">
<stop/>
<stop offset="1" stop-opacity="0.25"/>
</linearGradient>
<linearGradient id="paint2_linear_2178_3198" x1="172.223" y1="56" x2="205.617" y2="147.864" gradientUnits="userSpaceOnUse">
<stop/>
<stop offset="1" stop-opacity="0.25"/>
</linearGradient>
</defs>
</svg>
