<svg width="20" height="21" viewBox="0 0 20 21" fill="none" xmlns="http://www.w3.org/2000/svg">
<path d="M16.6151 7.22225H17.5C18.4205 7.22225 19.1667 7.96844 19.1667 8.88892V12.2222C19.1667 13.1427 18.4205 13.8889 17.5 13.8889H16.6151C16.205 17.1775 13.3997 19.7222 10 19.7222V18.0556C12.7615 18.0556 15 15.817 15 13.0556V8.05558C15 5.29416 12.7615 3.05558 10 3.05558C7.23862 3.05558 5.00004 5.29416 5.00004 8.05558V13.8889H2.50004C1.57957 13.8889 0.833374 13.1427 0.833374 12.2222V8.88892C0.833374 7.96844 1.57957 7.22225 2.50004 7.22225H3.38495C3.79503 3.93366 6.60036 1.38892 10 1.38892C13.3997 1.38892 16.205 3.93366 16.6151 7.22225ZM2.50004 8.88892V12.2222H3.33337V8.88892H2.50004ZM16.6667 8.88892V12.2222H17.5V8.88892H16.6667ZM6.46624 13.7097L7.34969 12.2962C8.11805 12.7774 9.02654 13.0556 10 13.0556C10.9735 13.0556 11.882 12.7774 12.6504 12.2962L13.5339 13.7097C12.5094 14.3513 11.298 14.7222 10 14.7222C8.70204 14.7222 7.49072 14.3513 6.46624 13.7097Z" fill="black"/>
</svg>
