<svg width="20" height="20" viewBox="0 0 20 20" fill="none" xmlns="http://www.w3.org/2000/svg">
<path d="M8.00996 3.06152H4.90163C4.35939 3.06152 4.08828 3.06152 3.86766 3.12845C3.37095 3.27912 2.98225 3.66783 2.83157 4.16454C2.76465 4.38515 2.76465 4.65627 2.76465 5.1985C2.76465 5.74074 2.76465 6.01185 2.83157 6.23247C2.98225 6.72918 3.37095 7.11788 3.86766 7.26856C4.08828 7.33548 4.35939 7.33548 4.90163 7.33548H8.00996C8.55221 7.33548 8.82333 7.33548 9.04395 7.26856C9.54066 7.11788 9.92936 6.72918 10.08 6.23247C10.1469 6.01185 10.1469 5.74074 10.1469 5.1985C10.1469 4.65627 10.1469 4.38515 10.08 4.16454C9.92936 3.66783 9.54066 3.27912 9.04395 3.12845C8.82333 3.06152 8.55221 3.06152 8.00996 3.06152Z" stroke="#666D80" stroke-width="1.16562" stroke-linejoin="round"/>
<path d="M16.7521 8.30684V5.1985C16.7521 4.65627 16.7521 4.38515 16.6852 4.16454C16.5345 3.66783 16.1458 3.27912 15.6491 3.12845C15.4285 3.06152 15.1574 3.06152 14.6151 3.06152C14.0729 3.06152 13.8018 3.06152 13.5811 3.12845C13.0844 3.27912 12.6957 3.66783 12.5451 4.16454C12.4781 4.38515 12.4781 4.65627 12.4781 5.1985V8.30684C12.4781 8.84908 12.4781 9.12021 12.5451 9.34082C12.6957 9.83753 13.0844 10.2262 13.5811 10.3769C13.8018 10.4438 14.0729 10.4438 14.6151 10.4438C15.1574 10.4438 15.4285 10.4438 15.6491 10.3769C16.1458 10.2262 16.5345 9.83753 16.6852 9.34082C16.7521 9.12021 16.7521 8.84908 16.7521 8.30684Z" stroke="#666D80" stroke-width="1.16562" stroke-linejoin="round"/>
<path d="M13.5811 16.9824C13.8018 17.0493 14.0729 17.0493 14.6151 17.0493C15.1574 17.0493 15.4285 17.0493 15.6491 16.9824C16.1458 16.8318 16.5345 16.4431 16.6852 15.9464C16.7521 15.7257 16.7521 15.4546 16.7521 14.9124C16.7521 14.3701 16.7521 14.099 16.6852 13.8784C16.5345 13.3817 16.1458 12.993 15.6491 12.8423C15.4285 12.7754 15.1574 12.7754 14.6151 12.7754C14.0729 12.7754 13.8018 12.7754 13.5811 12.8423C13.0844 12.993 12.6957 13.3817 12.5451 13.8784C12.4781 14.099 12.4781 14.3701 12.4781 14.9124C12.4781 15.4546 12.4781 15.7257 12.5451 15.9464C12.6957 16.4431 13.0844 16.8318 13.5811 16.9824Z" stroke="#666D80" stroke-width="1.16562" stroke-linejoin="round"/>
<path d="M7.03861 9.66699H5.87298C4.4077 9.66699 3.67506 9.66699 3.21986 10.1222C2.76465 10.5774 2.76465 11.3101 2.76465 12.7753V13.941C2.76465 15.4062 2.76465 16.1389 3.21986 16.5941C3.67506 17.0493 4.4077 17.0493 5.87298 17.0493H7.03861C8.50387 17.0493 9.23651 17.0493 9.69172 16.5941C10.1469 16.1389 10.1469 15.4062 10.1469 13.941V12.7753C10.1469 11.3101 10.1469 10.5774 9.69172 10.1222C9.23651 9.66699 8.50387 9.66699 7.03861 9.66699Z" stroke="#666D80" stroke-width="1.16562" stroke-linejoin="round"/>
</svg>
