<svg width="20" height="20" viewBox="0 0 20 20" fill="none" xmlns="http://www.w3.org/2000/svg">
<path d="M1.98755 8.50161C1.98755 5.92392 4.07235 3.83911 6.65005 3.83911L5.98398 5.17126" stroke="#666D80" stroke-width="1.16562" stroke-linecap="round" stroke-linejoin="round"/>
<path d="M17.5292 11.6099C17.5292 14.1875 15.4444 16.2724 12.8667 16.2724L13.5327 14.9402" stroke="#666D80" stroke-width="1.16562" stroke-linecap="round" stroke-linejoin="round"/>
<path d="M13.838 2.68558C15.2603 2.0991 16.5123 2.29437 17.1912 2.41883C17.3844 2.45427 17.5291 2.64378 17.5291 2.86406V7.88322C17.5291 8.14631 17.3255 8.34254 17.0945 8.3017C16.3975 8.17844 15.1952 8.0262 13.838 8.58589C12.3787 9.18759 10.9099 9.30081 10.1084 9.2754C9.90898 9.2691 9.7583 9.08105 9.7583 8.85655V3.83494C9.7583 3.5762 9.95661 3.37266 10.1866 3.37709C11.003 3.39285 12.4249 3.26823 13.838 2.68558Z" stroke="#666D80" stroke-width="1.16562" stroke-linecap="round" stroke-linejoin="round"/>
<path d="M6.06724 11.2334C7.48955 10.647 8.74157 10.8422 9.42043 10.9666C9.61369 11.0021 9.75838 11.1916 9.75838 11.4119V16.4311C9.75838 16.6941 9.55479 16.8903 9.32376 16.8496C8.62671 16.7263 7.42451 16.5741 6.06724 17.1337C4.60792 17.7354 3.13916 17.8486 2.33764 17.8232C2.13822 17.8169 1.98755 17.6289 1.98755 17.4044V12.3828C1.98755 12.124 2.1859 11.9205 2.41585 11.9249C3.23227 11.9407 4.65417 11.8161 6.06724 11.2334Z" stroke="#666D80" stroke-width="1.16562" stroke-linecap="round" stroke-linejoin="round"/>
<path d="M13.6436 5.78174H13.6505" stroke="#666D80" stroke-width="1.55417" stroke-linecap="round" stroke-linejoin="round"/>
<path d="M5.8728 14.3296H5.87978" stroke="#666D80" stroke-width="1.55417" stroke-linecap="round" stroke-linejoin="round"/>
</svg>
