<svg width="20" height="20" viewBox="0 0 20 20" fill="none" xmlns="http://www.w3.org/2000/svg">
<path d="M11.7011 10.0557C11.7011 11.1287 10.8313 11.9985 9.75838 11.9985C8.68546 11.9985 7.81567 11.1287 7.81567 10.0557C7.81567 8.98283 8.68546 8.11304 9.75838 8.11304C10.8313 8.11304 11.7011 8.98283 11.7011 10.0557Z" stroke="#666D80" stroke-width="1.16562"/>
<path d="M15.1979 9.38866C14.9453 9.35206 14.6858 9.32424 14.4208 9.30566M5.09581 10.8059C4.8308 10.7874 4.57136 10.7595 4.31873 10.7229" stroke="#666D80" stroke-width="1.16562" stroke-linecap="round" stroke-linejoin="round"/>
<path d="M9.75838 15.8838C8.72292 16.3674 7.36269 16.6609 5.87297 16.6609C5.04466 16.6609 4.25639 16.5702 3.54172 16.4064C2.37576 16.1394 1.98755 15.438 1.98755 14.241V5.87025C1.98755 5.10496 2.79574 4.57933 3.54172 4.75019C4.25639 4.91388 5.04466 5.00461 5.87297 5.00461C7.36269 5.00461 8.72292 4.71115 9.75838 4.22752C10.7938 3.7439 12.1541 3.45044 13.6438 3.45044C14.4721 3.45044 15.2604 3.54116 15.975 3.70486C17.2042 3.98638 17.5292 4.70959 17.5292 5.87025V14.241C17.5292 15.0064 16.721 15.532 15.975 15.3611C15.2604 15.1974 14.4721 15.1067 13.6438 15.1067C12.1541 15.1067 10.7938 15.4001 9.75838 15.8838Z" stroke="#666D80" stroke-width="1.16562"/>
</svg>
