<svg width="92" height="118" viewBox="0 0 92 118" fill="none" xmlns="http://www.w3.org/2000/svg">
<path d="M10.152 117.5L10.152 76.992H0.64L0.64 64.856H10.152V53.048H0.64L0.64 40.912H10.152L10.152 0.403992H35.9L48.692 40.912H63.616V0.403992H81.82V40.912H91.168V53.048H81.82V64.856H91.168V76.992H81.82V117.5H55.908L42.788 76.992H28.356V117.5H10.152ZM28.356 64.856H39.18L35.572 53.048H28.028L28.356 64.856ZM64.108 91.916H64.928L64.272 76.992H59.844L64.108 91.916ZM27.7 40.912H32.292L27.536 25.168H26.88L27.7 40.912ZM56.4 64.856H63.944L63.616 53.048H52.628L56.4 64.856Z" fill="url(#paint0_linear_268_1924)" fill-opacity="0.04"/>
<defs>
<linearGradient id="paint0_linear_268_1924" x1="31" y1="2.00001" x2="66.5" y2="92" gradientUnits="userSpaceOnUse">
<stop/>
<stop offset="1" stop-opacity="0.25"/>
</linearGradient>
</defs>
</svg>
