<svg width="32" height="33" viewBox="0 0 32 33" fill="none" xmlns="http://www.w3.org/2000/svg">
<path d="M8.7998 0.996094H21.5996C21.6724 0.996094 21.7431 1.01784 21.8027 1.05762L21.8584 1.10352L30.4922 9.73828C30.5607 9.80677 30.5995 9.89926 30.5996 9.99609V29.1963C30.5996 30.6321 29.4358 31.7967 28 31.7969H8.7998C7.36386 31.7969 6.19922 30.6322 6.19922 29.1963V3.59668C6.19922 2.16074 7.36386 0.996094 8.7998 0.996094Z" fill="white" stroke="#D0D5DD" stroke-width="1.2"/>
<path d="M21.5996 0.796875V6.79688C21.5996 8.56419 23.0323 9.99688 24.7996 9.99688H30.7996" stroke="#D0D5DD" stroke-width="1.2"/>
<rect x="0.799805" y="14.5967" width="20.8" height="13.2" rx="1.6" fill="#D92D20"/>
<path d="M3.86603 24.1963V18.3781H6.16149C6.60278 18.3781 6.97872 18.4624 7.28933 18.6309C7.59994 18.7976 7.83668 19.0296 7.99956 19.327C8.16433 19.6224 8.24672 19.9633 8.24672 20.3497C8.24672 20.7361 8.16338 21.077 7.99672 21.3724C7.83005 21.6679 7.58857 21.898 7.27228 22.0628C6.95789 22.2275 6.57721 22.3099 6.13024 22.3099H4.66717V21.3241H5.93137C6.16812 21.3241 6.36319 21.2834 6.5166 21.202C6.6719 21.1186 6.78744 21.0041 6.86319 20.8582C6.94084 20.7105 6.97967 20.541 6.97967 20.3497C6.97967 20.1565 6.94084 19.988 6.86319 19.844C6.78744 19.6982 6.6719 19.5855 6.5166 19.5059C6.3613 19.4245 6.16433 19.3838 5.92569 19.3838H5.09615V24.1963H3.86603ZM11.1082 24.1963H9.04572V18.3781H11.1253C11.7105 18.3781 12.2143 18.4946 12.6366 18.7275C13.059 18.9586 13.3838 19.291 13.6111 19.7247C13.8402 20.1584 13.9548 20.6773 13.9548 21.2815C13.9548 21.8876 13.8402 22.4084 13.6111 22.844C13.3838 23.2796 13.0571 23.6139 12.6309 23.8469C12.2067 24.0798 11.6991 24.1963 11.1082 24.1963ZM10.2758 23.1423H11.0571C11.4207 23.1423 11.7266 23.0779 11.9747 22.9491C12.2247 22.8184 12.4122 22.6167 12.5372 22.344C12.6641 22.0694 12.7275 21.7152 12.7275 21.2815C12.7275 20.8516 12.6641 20.5003 12.5372 20.2275C12.4122 19.9548 12.2256 19.7541 11.9775 19.6253C11.7294 19.4965 11.4236 19.4321 11.0599 19.4321H10.2758V23.1423ZM14.866 24.1963V18.3781H18.7183V19.3923H16.0961V20.7787H18.4626V21.7929H16.0961V24.1963H14.866Z" fill="white"/>
</svg>
