<svg width="20" height="20" viewBox="0 0 20 20" fill="none" xmlns="http://www.w3.org/2000/svg">
<path d="M1.98755 10.0558C1.98755 6.75888 1.98755 5.11043 3.12556 4.08622C4.26357 3.06201 6.09518 3.06201 9.75838 3.06201C13.4216 3.06201 15.2532 3.06201 16.3912 4.08622C17.5292 5.11043 17.5292 6.75888 17.5292 10.0558C17.5292 13.3526 17.5292 15.0011 16.3912 16.0253C15.2532 17.0495 13.4216 17.0495 9.75838 17.0495C6.09518 17.0495 4.26357 17.0495 3.12556 16.0253C1.98755 15.0011 1.98755 13.3526 1.98755 10.0558Z" stroke="#666D80" stroke-width="1.16562" stroke-linecap="round" stroke-linejoin="round"/>
<path d="M6.96082 6.94727H6.33916C5.75304 6.94727 5.45999 6.94727 5.2779 7.12934C5.09583 7.31143 5.09583 7.60448 5.09583 8.1906V8.81227C5.09583 9.39834 5.09583 9.69146 5.2779 9.87353C5.45999 10.0556 5.75304 10.0556 6.33916 10.0556H6.96082C7.54694 10.0556 7.83999 10.0556 8.02208 9.87353C8.20416 9.69146 8.20416 9.39834 8.20416 8.81227V8.1906C8.20416 7.60449 8.20416 7.31143 8.02208 7.12934C7.83999 6.94727 7.54694 6.94727 6.96082 6.94727Z" stroke="#666D80" stroke-width="1.16562" stroke-linejoin="round"/>
<path d="M5.09583 13.1641H8.20416" stroke="#666D80" stroke-width="1.16562" stroke-linecap="round" stroke-linejoin="round"/>
<path d="M11.3125 6.94727H14.4208" stroke="#666D80" stroke-width="1.16562" stroke-linecap="round" stroke-linejoin="round"/>
<path d="M11.3125 10.0557H14.4208" stroke="#666D80" stroke-width="1.16562" stroke-linecap="round" stroke-linejoin="round"/>
<path d="M11.3125 13.1641H14.4208" stroke="#666D80" stroke-width="1.16562" stroke-linecap="round" stroke-linejoin="round"/>
</svg>
