<svg width="40" height="40" viewBox="0 0 40 40" fill="none" xmlns="http://www.w3.org/2000/svg">
<path d="M24.1667 19.0038C24.1667 18.7157 24.1667 18.5717 24.2101 18.4433C24.3361 18.0704 24.6682 17.9256 25.001 17.7741C25.3751 17.6037 25.5621 17.5185 25.7474 17.5035C25.9578 17.4865 26.1686 17.5318 26.3484 17.6327C26.5868 17.7665 26.7531 18.0208 26.9233 18.2275C27.7095 19.1823 28.1025 19.6598 28.2463 20.1863C28.3624 20.6112 28.3624 21.0555 28.2463 21.4803C28.0366 22.2483 27.3738 22.892 26.8832 23.4878C26.6323 23.7926 26.5068 23.945 26.3484 24.0339C26.1686 24.1348 25.9578 24.1802 25.7474 24.1632C25.5621 24.1482 25.3751 24.063 25.001 23.8926C24.6682 23.741 24.3361 23.5963 24.2101 23.2233C24.1667 23.095 24.1667 22.951 24.1667 22.6629V19.0038Z" stroke="#5E6782" stroke-width="1.5"/>
<path d="M15.8334 19.0038C15.8334 18.6412 15.8232 18.3152 15.53 18.0602C15.4234 17.9674 15.282 17.903 14.9992 17.7742C14.6251 17.6038 14.438 17.5186 14.2527 17.5036C13.6967 17.4587 13.3975 17.8382 13.0769 18.2277C12.2907 19.1825 11.8976 19.6599 11.7538 20.1864C11.6377 20.6113 11.6377 21.0557 11.7538 21.4805C11.9636 22.2484 12.6263 22.8921 13.1169 23.488C13.4262 23.8636 13.7216 24.2063 14.2527 24.1633C14.438 24.1483 14.6251 24.0631 14.9992 23.8928C15.282 23.7639 15.4234 23.6995 15.53 23.6068C15.8232 23.3518 15.8334 23.0258 15.8334 22.6631V19.0038Z" stroke="#5E6782" stroke-width="1.5"/>
<path d="M14.1667 17.5C14.1667 14.7386 16.7784 12.5 20.0001 12.5C23.2217 12.5 25.8334 14.7386 25.8334 17.5" stroke="#5E6782" stroke-width="1.5" stroke-linecap="square" stroke-linejoin="round"/>
<path d="M25.8333 24.1667V24.8334C25.8333 26.3062 24.3408 27.5001 22.4999 27.5001H20.8333" stroke="#5E6782" stroke-width="1.5" stroke-linecap="round" stroke-linejoin="round"/>
</svg>
