<svg width="20" height="20" viewBox="0 0 20 20" fill="none" xmlns="http://www.w3.org/2000/svg">
<path d="M12.8667 11.61C12.8667 12.2537 13.3886 12.7756 14.0323 12.7756C14.6761 12.7756 15.1979 12.2537 15.1979 11.61C15.1979 10.9662 14.6761 10.4443 14.0323 10.4443C13.3886 10.4443 12.8667 10.9662 12.8667 11.61Z" stroke="#666D80" stroke-width="1.16562"/>
<path d="M3.54172 16.2724C2.68337 16.2724 1.98755 15.5766 1.98755 14.7182C1.98755 13.8599 2.68337 13.1641 3.54172 13.1641C4.40006 13.1641 5.09588 14.2001 5.09588 14.7182C5.09588 15.2363 4.40006 16.2724 3.54172 16.2724Z" stroke="#666D80" stroke-width="1.16562"/>
<path d="M6.64999 16.2724C5.79165 16.2724 5.09583 15.1068 5.09583 14.7182C5.09583 14.3297 5.79165 13.1641 6.64999 13.1641C7.50833 13.1641 8.20416 13.8599 8.20416 14.7182C8.20416 15.5766 7.50833 16.2724 6.64999 16.2724Z" stroke="#666D80" stroke-width="1.16562"/>
<path d="M10.5355 16.2724H12.8667C15.0646 16.2724 16.1636 16.2724 16.8464 15.5896C17.5292 14.9068 17.5292 13.8078 17.5292 11.6099V10.8329C17.5292 8.63496 17.5292 7.53598 16.8464 6.85317C16.348 6.35483 15.628 6.2202 14.4209 6.18382M14.4209 6.18382C13.9741 6.17036 13.4605 6.17036 12.8667 6.17036H8.20422M14.4209 6.18382C14.4209 5.44703 14.4209 5.07864 14.2985 4.78877C14.1411 4.41579 13.8442 4.11897 13.4712 3.96149C13.1814 3.83911 12.8129 3.83911 12.0762 3.83911H8.20422C5.27365 3.83911 3.80837 3.83911 2.89796 4.74952C1.98755 5.65993 1.98755 6.34813 1.98755 9.27869V10.8329" stroke="#666D80" stroke-width="1.16562" stroke-linecap="round"/>
</svg>
